<mxfile host="app.diagrams.net" agent="Mozilla/5.0 (Windows NT 10.0; Win64; x64) AppleWebKit/537.36 (KHTML, like Gecko) Chrome/131.0.0.0 Safari/537.36" version="24.8.6">
  <diagram id="C5RBs43oDa-KdzZeNtuy" name="Page-1">
    <mxGraphModel dx="2647" dy="1400" grid="1" gridSize="10" guides="1" tooltips="1" connect="1" arrows="1" fold="1" page="1" pageScale="1" pageWidth="827" pageHeight="1169" math="0" shadow="0">
      <root>
        <mxCell id="WIyWlLk6GJQsqaUBKTNV-0" />
        <mxCell id="WIyWlLk6GJQsqaUBKTNV-1" parent="WIyWlLk6GJQsqaUBKTNV-0" />
        <mxCell id="qaTJ0_vQdUtUM19hjCoU-2" style="edgeStyle=orthogonalEdgeStyle;rounded=0;orthogonalLoop=1;jettySize=auto;html=1;exitX=0.5;exitY=1;exitDx=0;exitDy=0;entryX=0.5;entryY=0;entryDx=0;entryDy=0;" edge="1" parent="WIyWlLk6GJQsqaUBKTNV-1" source="qaTJ0_vQdUtUM19hjCoU-0" target="qaTJ0_vQdUtUM19hjCoU-1">
          <mxGeometry relative="1" as="geometry" />
        </mxCell>
        <mxCell id="qaTJ0_vQdUtUM19hjCoU-0" value="System initiates" style="rounded=1;whiteSpace=wrap;html=1;" vertex="1" parent="WIyWlLk6GJQsqaUBKTNV-1">
          <mxGeometry x="304" y="40" width="160" height="80" as="geometry" />
        </mxCell>
        <mxCell id="qaTJ0_vQdUtUM19hjCoU-3" style="edgeStyle=orthogonalEdgeStyle;rounded=0;orthogonalLoop=1;jettySize=auto;html=1;exitX=1;exitY=0.5;exitDx=0;exitDy=0;entryX=1;entryY=0.5;entryDx=0;entryDy=0;" edge="1" parent="WIyWlLk6GJQsqaUBKTNV-1" source="qaTJ0_vQdUtUM19hjCoU-1" target="qaTJ0_vQdUtUM19hjCoU-0">
          <mxGeometry relative="1" as="geometry" />
        </mxCell>
        <mxCell id="qaTJ0_vQdUtUM19hjCoU-8" style="edgeStyle=orthogonalEdgeStyle;rounded=0;orthogonalLoop=1;jettySize=auto;html=1;exitX=0.5;exitY=1;exitDx=0;exitDy=0;entryX=0.5;entryY=0;entryDx=0;entryDy=0;" edge="1" parent="WIyWlLk6GJQsqaUBKTNV-1" source="qaTJ0_vQdUtUM19hjCoU-1" target="qaTJ0_vQdUtUM19hjCoU-5">
          <mxGeometry relative="1" as="geometry" />
        </mxCell>
        <mxCell id="qaTJ0_vQdUtUM19hjCoU-1" value="Initiation successful?" style="rhombus;whiteSpace=wrap;html=1;" vertex="1" parent="WIyWlLk6GJQsqaUBKTNV-1">
          <mxGeometry x="304" y="160" width="160" height="80" as="geometry" />
        </mxCell>
        <mxCell id="qaTJ0_vQdUtUM19hjCoU-4" value="No" style="text;html=1;align=center;verticalAlign=middle;whiteSpace=wrap;rounded=0;" vertex="1" parent="WIyWlLk6GJQsqaUBKTNV-1">
          <mxGeometry x="444" y="140" width="60" height="30" as="geometry" />
        </mxCell>
        <mxCell id="qaTJ0_vQdUtUM19hjCoU-9" style="edgeStyle=orthogonalEdgeStyle;rounded=0;orthogonalLoop=1;jettySize=auto;html=1;exitX=0.5;exitY=1;exitDx=0;exitDy=0;entryX=0.5;entryY=0;entryDx=0;entryDy=0;" edge="1" parent="WIyWlLk6GJQsqaUBKTNV-1" source="qaTJ0_vQdUtUM19hjCoU-5" target="qaTJ0_vQdUtUM19hjCoU-7">
          <mxGeometry relative="1" as="geometry" />
        </mxCell>
        <mxCell id="qaTJ0_vQdUtUM19hjCoU-5" value="Begin measuring, displaying and recording readings" style="rounded=1;whiteSpace=wrap;html=1;" vertex="1" parent="WIyWlLk6GJQsqaUBKTNV-1">
          <mxGeometry x="304" y="280" width="160" height="80" as="geometry" />
        </mxCell>
        <mxCell id="qaTJ0_vQdUtUM19hjCoU-10" style="edgeStyle=orthogonalEdgeStyle;rounded=0;orthogonalLoop=1;jettySize=auto;html=1;exitX=1;exitY=0.5;exitDx=0;exitDy=0;entryX=1;entryY=0.5;entryDx=0;entryDy=0;" edge="1" parent="WIyWlLk6GJQsqaUBKTNV-1" source="qaTJ0_vQdUtUM19hjCoU-7" target="qaTJ0_vQdUtUM19hjCoU-5">
          <mxGeometry relative="1" as="geometry" />
        </mxCell>
        <mxCell id="qaTJ0_vQdUtUM19hjCoU-15" style="edgeStyle=orthogonalEdgeStyle;rounded=0;orthogonalLoop=1;jettySize=auto;html=1;exitX=0.5;exitY=1;exitDx=0;exitDy=0;entryX=0.5;entryY=0;entryDx=0;entryDy=0;" edge="1" parent="WIyWlLk6GJQsqaUBKTNV-1" source="qaTJ0_vQdUtUM19hjCoU-7" target="qaTJ0_vQdUtUM19hjCoU-14">
          <mxGeometry relative="1" as="geometry" />
        </mxCell>
        <mxCell id="qaTJ0_vQdUtUM19hjCoU-7" value="Level 1 threshold reached?" style="rhombus;whiteSpace=wrap;html=1;" vertex="1" parent="WIyWlLk6GJQsqaUBKTNV-1">
          <mxGeometry x="304" y="400" width="160" height="80" as="geometry" />
        </mxCell>
        <mxCell id="qaTJ0_vQdUtUM19hjCoU-11" value="No" style="text;html=1;align=center;verticalAlign=middle;whiteSpace=wrap;rounded=0;" vertex="1" parent="WIyWlLk6GJQsqaUBKTNV-1">
          <mxGeometry x="444" y="380" width="60" height="30" as="geometry" />
        </mxCell>
        <mxCell id="qaTJ0_vQdUtUM19hjCoU-12" value="Yes" style="text;html=1;align=center;verticalAlign=middle;whiteSpace=wrap;rounded=0;" vertex="1" parent="WIyWlLk6GJQsqaUBKTNV-1">
          <mxGeometry x="364" y="240" width="60" height="30" as="geometry" />
        </mxCell>
        <mxCell id="qaTJ0_vQdUtUM19hjCoU-13" value="Yes" style="text;html=1;align=center;verticalAlign=middle;whiteSpace=wrap;rounded=0;" vertex="1" parent="WIyWlLk6GJQsqaUBKTNV-1">
          <mxGeometry x="364" y="480" width="60" height="30" as="geometry" />
        </mxCell>
        <mxCell id="qaTJ0_vQdUtUM19hjCoU-19" style="edgeStyle=orthogonalEdgeStyle;rounded=0;orthogonalLoop=1;jettySize=auto;html=1;exitX=0.5;exitY=1;exitDx=0;exitDy=0;entryX=0.5;entryY=0;entryDx=0;entryDy=0;" edge="1" parent="WIyWlLk6GJQsqaUBKTNV-1" source="qaTJ0_vQdUtUM19hjCoU-14" target="qaTJ0_vQdUtUM19hjCoU-16">
          <mxGeometry relative="1" as="geometry" />
        </mxCell>
        <mxCell id="qaTJ0_vQdUtUM19hjCoU-14" value="Normal operation continues, red warning LED begins to flash. LCDs switch between readings and warning concerning parameter" style="rounded=1;whiteSpace=wrap;html=1;" vertex="1" parent="WIyWlLk6GJQsqaUBKTNV-1">
          <mxGeometry x="304" y="520" width="160" height="80" as="geometry" />
        </mxCell>
        <mxCell id="qaTJ0_vQdUtUM19hjCoU-17" style="edgeStyle=orthogonalEdgeStyle;rounded=0;orthogonalLoop=1;jettySize=auto;html=1;exitX=1;exitY=0.5;exitDx=0;exitDy=0;" edge="1" parent="WIyWlLk6GJQsqaUBKTNV-1" source="qaTJ0_vQdUtUM19hjCoU-16">
          <mxGeometry relative="1" as="geometry">
            <mxPoint x="464.3333333333335" y="680" as="targetPoint" />
          </mxGeometry>
        </mxCell>
        <mxCell id="qaTJ0_vQdUtUM19hjCoU-23" style="edgeStyle=orthogonalEdgeStyle;rounded=0;orthogonalLoop=1;jettySize=auto;html=1;exitX=0.5;exitY=1;exitDx=0;exitDy=0;entryX=0.5;entryY=0;entryDx=0;entryDy=0;" edge="1" parent="WIyWlLk6GJQsqaUBKTNV-1" source="qaTJ0_vQdUtUM19hjCoU-16" target="qaTJ0_vQdUtUM19hjCoU-22">
          <mxGeometry relative="1" as="geometry" />
        </mxCell>
        <mxCell id="qaTJ0_vQdUtUM19hjCoU-16" value="Problem addressed, system reset?" style="rhombus;whiteSpace=wrap;html=1;" vertex="1" parent="WIyWlLk6GJQsqaUBKTNV-1">
          <mxGeometry x="304" y="640" width="160" height="80" as="geometry" />
        </mxCell>
        <mxCell id="qaTJ0_vQdUtUM19hjCoU-18" value="" style="endArrow=none;html=1;rounded=0;exitX=1;exitY=0.5;exitDx=0;exitDy=0;" edge="1" parent="WIyWlLk6GJQsqaUBKTNV-1" source="qaTJ0_vQdUtUM19hjCoU-16">
          <mxGeometry width="50" height="50" relative="1" as="geometry">
            <mxPoint x="734" y="410" as="sourcePoint" />
            <mxPoint x="484" y="80" as="targetPoint" />
            <Array as="points">
              <mxPoint x="544" y="680" />
              <mxPoint x="544" y="80" />
            </Array>
          </mxGeometry>
        </mxCell>
        <mxCell id="qaTJ0_vQdUtUM19hjCoU-20" value="Yes" style="text;html=1;align=center;verticalAlign=middle;whiteSpace=wrap;rounded=0;" vertex="1" parent="WIyWlLk6GJQsqaUBKTNV-1">
          <mxGeometry x="494" y="620" width="60" height="30" as="geometry" />
        </mxCell>
        <mxCell id="qaTJ0_vQdUtUM19hjCoU-26" style="edgeStyle=orthogonalEdgeStyle;rounded=0;orthogonalLoop=1;jettySize=auto;html=1;exitX=0.5;exitY=1;exitDx=0;exitDy=0;entryX=0.5;entryY=0;entryDx=0;entryDy=0;" edge="1" parent="WIyWlLk6GJQsqaUBKTNV-1" source="qaTJ0_vQdUtUM19hjCoU-22" target="qaTJ0_vQdUtUM19hjCoU-25">
          <mxGeometry relative="1" as="geometry" />
        </mxCell>
        <mxCell id="qaTJ0_vQdUtUM19hjCoU-22" value="Problem gets worse, level 2 threshold reached?" style="rhombus;whiteSpace=wrap;html=1;" vertex="1" parent="WIyWlLk6GJQsqaUBKTNV-1">
          <mxGeometry x="304" y="760" width="160" height="80" as="geometry" />
        </mxCell>
        <mxCell id="qaTJ0_vQdUtUM19hjCoU-24" value="No" style="text;html=1;align=center;verticalAlign=middle;whiteSpace=wrap;rounded=0;" vertex="1" parent="WIyWlLk6GJQsqaUBKTNV-1">
          <mxGeometry x="364" y="720" width="60" height="30" as="geometry" />
        </mxCell>
        <mxCell id="qaTJ0_vQdUtUM19hjCoU-30" style="edgeStyle=orthogonalEdgeStyle;rounded=0;orthogonalLoop=1;jettySize=auto;html=1;exitX=0.5;exitY=1;exitDx=0;exitDy=0;entryX=0.5;entryY=0;entryDx=0;entryDy=0;" edge="1" parent="WIyWlLk6GJQsqaUBKTNV-1" source="qaTJ0_vQdUtUM19hjCoU-25" target="qaTJ0_vQdUtUM19hjCoU-27">
          <mxGeometry relative="1" as="geometry" />
        </mxCell>
        <mxCell id="qaTJ0_vQdUtUM19hjCoU-25" value="Normal operation interrupted, warning buzzer begins, LCDs flash level 2 alarm gas." style="rounded=1;whiteSpace=wrap;html=1;" vertex="1" parent="WIyWlLk6GJQsqaUBKTNV-1">
          <mxGeometry x="304" y="880" width="160" height="80" as="geometry" />
        </mxCell>
        <mxCell id="qaTJ0_vQdUtUM19hjCoU-32" style="edgeStyle=orthogonalEdgeStyle;rounded=0;orthogonalLoop=1;jettySize=auto;html=1;exitX=0;exitY=0.5;exitDx=0;exitDy=0;entryX=0;entryY=0.5;entryDx=0;entryDy=0;" edge="1" parent="WIyWlLk6GJQsqaUBKTNV-1" source="qaTJ0_vQdUtUM19hjCoU-27" target="qaTJ0_vQdUtUM19hjCoU-25">
          <mxGeometry relative="1" as="geometry" />
        </mxCell>
        <mxCell id="qaTJ0_vQdUtUM19hjCoU-27" value="Problem addressed, system reset?" style="rhombus;whiteSpace=wrap;html=1;" vertex="1" parent="WIyWlLk6GJQsqaUBKTNV-1">
          <mxGeometry x="304" y="1000" width="160" height="80" as="geometry" />
        </mxCell>
        <mxCell id="qaTJ0_vQdUtUM19hjCoU-29" value="" style="endArrow=none;html=1;rounded=0;exitX=1;exitY=0.5;exitDx=0;exitDy=0;" edge="1" parent="WIyWlLk6GJQsqaUBKTNV-1" source="qaTJ0_vQdUtUM19hjCoU-27">
          <mxGeometry width="50" height="50" relative="1" as="geometry">
            <mxPoint x="674" y="860" as="sourcePoint" />
            <mxPoint x="544" y="80" as="targetPoint" />
            <Array as="points">
              <mxPoint x="584" y="1040" />
              <mxPoint x="584" y="80" />
            </Array>
          </mxGeometry>
        </mxCell>
        <mxCell id="qaTJ0_vQdUtUM19hjCoU-31" value="Yes" style="text;html=1;align=center;verticalAlign=middle;whiteSpace=wrap;rounded=0;" vertex="1" parent="WIyWlLk6GJQsqaUBKTNV-1">
          <mxGeometry x="534" y="980" width="60" height="30" as="geometry" />
        </mxCell>
        <mxCell id="qaTJ0_vQdUtUM19hjCoU-33" value="No" style="text;html=1;align=center;verticalAlign=middle;whiteSpace=wrap;rounded=0;" vertex="1" parent="WIyWlLk6GJQsqaUBKTNV-1">
          <mxGeometry x="234" y="980" width="60" height="30" as="geometry" />
        </mxCell>
      </root>
    </mxGraphModel>
  </diagram>
</mxfile>
